<svg xmlns="http://www.w3.org/2000/svg" xmlns:xlink="http://www.w3.org/1999/xlink" viewBox="-100 -100 1252.5 1023.7">
<line x1="536" y1="400"  x2="836"  y2="400" style="stroke:black; stroke-width:1"/>
<text x="695" y="400" class="smaller">3 m </text>
<line x1="836" y1="400"  x2="836"  y2="100" style="stroke:black; stroke-width:1"/>
<text x="854" y="241" class="smaller">3 m </text>
<line x1="836" y1="100"  x2="736"  y2="0" style="stroke:black; stroke-width:1"/>
<text x="801" y="29" class="smaller">1.41421 m </text>
<line x1="736" y1="0"  x2="436"  y2="6.2073e-11" style="stroke:black; stroke-width:1"/>
<text x="589" y="-24" class="smaller">3 m </text>
<line x1="436" y1="6.2073e-11"  x2="436"  y2="400" style="stroke:black; stroke-width:1"/>
<text x="430" y="188" class="smaller">4 m </text>
<line x1="436" y1="400"  x2="436"  y2="428" style="stroke:red; stroke-width:1"/>
<text x="430" y="414.84" class="smaller">0.28 m </text>
<line x1="436" y1="428"  x2="418"  y2="428" style="stroke:black; stroke-width:1"/>
<text x="420.46" y="429.68" class="smaller">0.18 m </text>
<line x1="418" y1="428"  x2="418"  y2="400" style="stroke:red; stroke-width:1"/>
<text x="410.92" y="414.84" class="smaller">0.28 m </text>
<line x1="418" y1="400"  x2="418"  y2="6.58247e-11" style="stroke:green; stroke-width:1"/>
<text x="410.92" y="188" class="smaller">4 m </text>
<line x1="418" y1="6.58247e-11"  x2="318"  y2="8.65725e-11" style="stroke:green; stroke-width:1"/>
<text x="357.92" y="-24" class="smaller">1 m </text>
<line x1="318" y1="8.65725e-11"  x2="318"  y2="400" style="stroke:green; stroke-width:1"/>
<text x="304.92" y="188" class="smaller">4 m </text>
<line x1="318" y1="400"  x2="318"  y2="428" style="stroke:red; stroke-width:1"/>
<text x="304.92" y="414.84" class="smaller">0.28 m </text>
<line x1="318" y1="428"  x2="300"  y2="428" style="stroke:black; stroke-width:1"/>
<text x="295.38" y="429.68" class="smaller">0.18 m </text>
<line x1="300" y1="428"  x2="300"  y2="400" style="stroke:red; stroke-width:1"/>
<text x="285.84" y="414.84" class="smaller">0.28 m </text>
<line x1="300" y1="400"  x2="300"  y2="9.03242e-11" style="stroke:black; stroke-width:1"/>
<text x="285.84" y="188" class="smaller">4 m </text>
<line x1="300" y1="9.03242e-11"  x2="0"  y2="1.52511e-10" style="stroke:black; stroke-width:1"/>
<text x="126.84" y="-24" class="smaller">3 m </text>
<line x1="0" y1="1.52511e-10"  x2="1.2426e-10"  y2="400" style="stroke:black; stroke-width:1"/>
<text x="-32.16" y="188" class="smaller">4 m </text>
<line x1="1.2426e-10" y1="400"  x2="187"  y2="400" style="stroke:black; stroke-width:1"/>
<text x="66.95" y="400" class="smaller">1.87 m </text>
<line x1="187" y1="400"  x2="187"  y2="428" style="stroke:red; stroke-width:1"/>
<text x="166.06" y="414.84" class="smaller">0.28 m </text>
<line x1="187" y1="428"  x2="1.329e-10"  y2="428" style="stroke:black; stroke-width:1"/>
<text x="66.95" y="429.68" class="smaller">1.87 m </text>
<line x1="1.329e-10" y1="428"  x2="2.24759e-10"  y2="723.7" style="stroke:black; stroke-width:1"/>
<text x="-32.16" y="586.401" class="smaller">2.957 m </text>
<line x1="2.24759e-10" y1="723.7"  x2="177.6"  y2="723.7" style="stroke:black; stroke-width:1"/>
<text x="61.968" y="743.122" class="smaller">1.776 m </text>
<line x1="177.6" y1="723.7"  x2="177.6"  y2="612.3" style="stroke:black; stroke-width:1"/>
<text x="156.096" y="684.08" class="smaller">1.114 m </text>
<line x1="177.6" y1="612.3"  x2="71.8"  y2="612.3" style="stroke:black; stroke-width:1"/>
<text x="100.022" y="625.038" class="smaller">1.058 m </text>
<line x1="71.8" y1="612.3"  x2="71.8"  y2="592.3" style="stroke:black; stroke-width:1"/>
<text x="43.948" y="614.438" class="smaller">0.2 m </text>
<line x1="71.8" y1="592.3"  x2="131.8"  y2="592.3" style="stroke:black; stroke-width:1"/>
<text x="75.748" y="603.838" class="smaller">0.6 m </text>
<line x1="131.8" y1="592.3"  x2="131.8"  y2="542.3" style="stroke:black; stroke-width:1"/>
<text x="107.548" y="577.338" class="smaller">0.5 m </text>
<line x1="131.8" y1="542.3"  x2="151.8"  y2="542.3" style="stroke:red; stroke-width:1"/>
<text x="118.148" y="550.838" class="smaller">0.2 m </text>
<line x1="151.8" y1="542.3"  x2="151.8"  y2="592.3" style="stroke:black; stroke-width:1"/>
<text x="128.748" y="577.338" class="smaller">0.5 m </text>
<line x1="151.8" y1="592.3"  x2="271"  y2="592.3" style="stroke:black; stroke-width:1"/>
<text x="191.924" y="603.838" class="smaller">1.192 m </text>
<line x1="271" y1="592.3"  x2="271"  y2="612.3" style="stroke:red; stroke-width:1"/>
<text x="255.1" y="614.438" class="smaller">0.2 m </text>
<line x1="271" y1="612.3"  x2="256"  y2="612.3" style="stroke:black; stroke-width:1"/>
<text x="247.15" y="625.038" class="smaller">0.15 m </text>
<line x1="256" y1="612.3"  x2="199"  y2="612.3" style="stroke:black; stroke-width:1"/>
<text x="208.99" y="625.038" class="smaller">0.57 m </text>
<line x1="199" y1="612.3"  x2="199"  y2="722.3" style="stroke:black; stroke-width:1"/>
<text x="178.78" y="683.338" class="smaller">1.1 m </text>
<line x1="199" y1="722.3"  x2="634.7"  y2="722.3" style="stroke:black; stroke-width:1"/>
<text x="409.701" y="741.638" class="smaller">4.357 m </text>
<line x1="634.7" y1="722.3"  x2="634.7"  y2="612.3" style="stroke:black; stroke-width:1"/>
<text x="640.622" y="683.338" class="smaller">1.1 m </text>
<line x1="634.7" y1="612.3"  x2="352.5"  y2="612.3" style="stroke:black; stroke-width:1"/>
<text x="491.056" y="625.038" class="smaller">2.822 m </text>
<line x1="352.5" y1="612.3"  x2="352.5"  y2="592.3" style="stroke:red; stroke-width:1"/>
<text x="341.49" y="614.438" class="smaller">0.2 m </text>
<line x1="352.5" y1="592.3"  x2="952.5"  y2="592.3" style="stroke:black; stroke-width:1"/>
<text x="659.49" y="603.838" class="smaller">6 m </text>
<line x1="952.5" y1="592.3"  x2="952.5"  y2="427.3" style="stroke:blue; stroke-width:1"/>
<text x="977.49" y="516.388" class="smaller">1.65 m </text>
<line x1="952.5" y1="427.3"  x2="536"  y2="427.3" style="stroke:black; stroke-width:1"/>
<text x="756.745" y="428.938" class="smaller">4.165 m </text>
<line x1="536" y1="427.3"  x2="536"  y2="399.3" style="stroke:red; stroke-width:1"/>
<text x="536" y="414.098" class="smaller">0.28 m </text>
<polygon points="536,400 836,400 836,100 736,0 436,6.2073e-11 436,400 " style="fill:rgb(250, 250, 250)" />
<text x="636" y="216.667" class="small">15.5 m²</text>
<polygon points="418,400 418,6.58247e-11 318,8.65725e-11 318,400 " style="fill:rgb(250, 250, 250)" />
<text x="368" y="200" class="small">4 m²</text>
<polygon points="300,400 300,9.03242e-11 0,1.52511e-10 1.2426e-10,400 187,400 " style="fill:rgb(250, 250, 250)" />
<text x="157.4" y="240" class="small">12 m²</text>
</svg>
